<svg width="54" height="172" viewBox="0 0 54 172" fill="none" xmlns="http://www.w3.org/2000/svg">
<path d="M0.920044 0H54.0019V171.354H0.920044V0Z" fill="white"/>
<path d="M30.9371 151.571C30.6901 152.051 30.3387 152.468 29.9087 152.793C29.4788 153.118 28.9813 153.342 28.453 153.449L27.488 151.914C28.111 151.759 28.614 151.513 28.9941 151.177C29.3741 150.84 29.5641 150.41 29.5641 149.885C29.5641 149.485 29.4631 149.163 29.2631 148.919C29.0641 148.677 28.759 148.554 28.351 148.554C28.097 148.554 27.873 148.637 27.677 148.803C27.4734 148.979 27.3006 149.189 27.166 149.423C27.02 149.672 26.835 150.026 26.61 150.484L26.406 150.907C26.113 151.491 25.7459 151.959 25.3019 152.31C24.8589 152.661 24.2909 152.835 23.5989 152.835C23.0828 152.835 22.6158 152.716 22.1968 152.478C21.7768 152.239 21.4488 151.903 21.2108 151.469C20.9728 151.035 20.8538 150.54 20.8538 149.987C20.8538 148.574 21.4728 147.609 22.7088 147.092L23.6879 148.627C22.9668 148.88 22.6058 149.333 22.6058 149.986C22.6058 150.268 22.6958 150.511 22.8768 150.715C23.0588 150.92 23.2789 151.023 23.5419 151.023C23.8049 151.023 24.0369 150.932 24.2359 150.752C24.442 150.564 24.615 150.341 24.7479 150.096C24.8889 149.838 25.0719 149.465 25.2959 148.978C25.5199 148.5 25.7499 148.099 25.9829 147.772C26.2241 147.439 26.5364 147.165 26.897 146.969C27.272 146.758 27.727 146.654 28.264 146.654C28.8771 146.654 29.4161 146.793 29.8781 147.071C30.3411 147.349 30.6971 147.736 30.9451 148.233C31.1931 148.73 31.3181 149.295 31.3181 149.928C31.3253 150.498 31.1946 151.062 30.9371 151.571ZM22.5478 145.017C22.4393 145.127 22.3094 145.213 22.1661 145.271C22.0229 145.329 21.8692 145.357 21.7148 145.353C21.3828 145.353 21.1048 145.242 20.8808 145.017C20.6568 144.792 20.5448 144.515 20.5448 144.184C20.5448 143.852 20.6568 143.576 20.8808 143.351C21.1048 143.126 21.3828 143.014 21.7148 143.014C22.0458 143.014 22.3228 143.126 22.5478 143.351C22.7728 143.576 22.8838 143.852 22.8838 144.184C22.8838 144.515 22.7728 144.792 22.5478 145.017ZM23.8329 143.277H31.2001V145.089H23.8329V143.277ZM30.6301 140.223C30.1721 140.702 29.4951 140.939 28.599 140.939H25.3829V142.08H23.8329V140.939H21.9908L20.8518 139.127H23.8319V137.182H25.3819V139.127H28.569C29.0071 139.127 29.3171 139.046 29.4971 138.885C29.6781 138.725 29.7671 138.483 29.7671 138.162C29.7671 137.918 29.7101 137.683 29.5921 137.46L31.0541 137.036C31.2301 137.416 31.3181 137.815 31.3181 138.234C31.3171 139.083 31.0881 139.745 30.6301 140.223ZM30.7541 134.717C30.3963 135.234 29.8995 135.639 29.3211 135.886C28.742 136.135 28.139 136.259 27.516 136.259C26.893 136.259 26.291 136.135 25.7109 135.886C25.1326 135.639 24.6356 135.234 24.2769 134.717C23.9019 134.186 23.7139 133.521 23.7139 132.722C23.7139 131.952 23.8979 131.309 24.2629 130.792C24.6087 130.291 25.0868 129.897 25.6439 129.652C26.1827 129.413 26.7655 129.288 27.355 129.287H28.101V134.359C28.537 134.343 28.9521 134.169 29.2691 133.869C29.6011 133.562 29.7651 133.145 29.7651 132.62C29.7651 132.21 29.6731 131.867 29.4881 131.589C29.3031 131.312 29.0151 131.061 28.626 130.836L29.1681 129.374C29.8591 129.677 30.3911 130.098 30.7601 130.639C31.1311 131.18 31.3171 131.874 31.3171 132.722C31.3171 133.52 31.1291 134.185 30.7541 134.717ZM26.669 131.143C26.259 131.231 25.9229 131.404 25.6599 131.662C25.3969 131.92 25.2659 132.273 25.2659 132.722C25.2659 133.151 25.4009 133.506 25.6739 133.789C25.9469 134.072 26.278 134.247 26.668 134.315L26.669 131.143ZM30.8191 122.637C30.4891 123.202 30.0361 123.633 29.4601 123.931C28.8861 124.228 28.239 124.376 27.517 124.376C26.796 124.376 26.148 124.228 25.5739 123.931C24.9979 123.633 24.5449 123.202 24.2139 122.637C23.8829 122.072 23.7179 121.405 23.7179 120.635C23.7179 119.864 23.8829 119.197 24.2139 118.632C24.5326 118.079 25.005 117.63 25.5739 117.339C26.148 117.041 26.797 116.893 27.517 116.893C28.24 116.893 28.8861 117.041 29.4601 117.339C30.0289 117.629 30.501 118.079 30.8191 118.632C31.1511 119.196 31.3161 119.864 31.3161 120.635C31.3171 121.404 31.1511 122.071 30.8191 122.637ZM29.1161 119.29C28.683 118.959 28.149 118.793 27.516 118.793C26.883 118.793 26.349 118.959 25.9139 119.29C25.4809 119.62 25.2649 120.068 25.2649 120.635C25.2649 121.199 25.4819 121.648 25.9139 121.979C26.349 122.311 26.883 122.477 27.516 122.477C28.149 122.477 28.683 122.311 29.1161 121.979C29.5511 121.648 29.7661 121.2 29.7661 120.635C29.7671 120.068 29.5511 119.62 29.1161 119.29ZM25.3829 115.157V116.093H23.8329V115.157H23.4519C22.5858 115.157 21.9358 114.93 21.5018 114.477C21.0688 114.024 20.8528 113.403 20.8528 112.614C20.8528 112.058 20.9488 111.6 21.1438 111.24L22.6068 111.636C22.4799 111.912 22.4102 112.21 22.4018 112.512C22.4018 113.068 22.7088 113.346 23.3219 113.346H23.8339V111.796H25.3839V113.346H31.2011V115.158L25.3829 115.157ZM30.6301 105.541C30.1721 106.02 29.4951 106.258 28.599 106.258H25.3829V107.397H23.8329V106.258H21.9908L20.8518 104.445H23.8319V102.501H25.3819V104.445H28.569C29.0071 104.445 29.3171 104.364 29.4971 104.204C29.6781 104.044 29.7671 103.802 29.7671 103.48C29.7671 103.236 29.7101 103.002 29.5921 102.778L31.0541 102.354C31.2301 102.734 31.3181 103.134 31.3181 103.553C31.3171 104.401 31.0881 105.063 30.6301 105.541ZM20.8518 101.102V99.2897H25.0179C24.6291 99.0472 24.3057 98.7131 24.0759 98.3167C23.8337 97.9024 23.7098 97.4296 23.7179 96.9497C23.7179 96.2388 23.9059 95.6788 24.2799 95.2688C24.6559 94.8598 25.2099 94.6548 25.9399 94.6548H31.2021V96.4678H26.581C26.132 96.4678 25.8019 96.5577 25.5869 96.7377C25.3719 96.9187 25.2659 97.1927 25.2659 97.5637C25.2659 97.8557 25.3689 98.1337 25.5739 98.3967C25.7779 98.6597 26.09 98.8747 26.51 99.0407C26.928 99.2067 27.455 99.2897 28.088 99.2897H31.2011V101.102H20.8518ZM30.7541 91.4669C30.3963 91.9839 29.8995 92.3892 29.3211 92.6358C28.7512 92.8824 28.1369 93.0096 27.516 93.0096C26.8951 93.0096 26.2808 92.8824 25.7109 92.6358C25.1329 92.3886 24.6362 91.9835 24.2779 91.4669C23.9029 90.9349 23.7149 90.2699 23.7149 89.4719C23.7149 88.7009 23.8989 88.059 24.2639 87.542C24.6096 87.041 25.0877 86.646 25.6449 86.401C26.1837 86.1617 26.7665 86.0374 27.356 86.036H28.102V91.1079C28.548 91.0879 28.9401 90.9249 29.2701 90.6179C29.6021 90.3109 29.7661 89.8939 29.7661 89.3689C29.7661 88.9599 29.6741 88.616 29.4891 88.339C29.3041 88.061 29.0161 87.81 28.627 87.586L29.1691 86.124C29.8601 86.426 30.3921 86.848 30.7611 87.389C31.1321 87.93 31.3181 88.6229 31.3181 89.4719C31.3171 90.2689 31.1291 90.9349 30.7541 91.4669ZM26.669 87.893C26.259 87.9809 25.9229 88.154 25.6599 88.4119C25.3969 88.6709 25.2659 89.0229 25.2659 89.4729C25.2659 89.9009 25.4009 90.2569 25.6739 90.5389C25.9469 90.8209 26.278 90.9969 26.668 91.0649L26.669 87.893ZM20.9678 80.5701V77.3682C20.9678 76.5212 21.1548 75.7372 21.5248 75.0153C21.8938 74.2943 22.4628 73.7123 23.2278 73.2693C23.9919 72.8253 24.9449 72.6043 26.085 72.6043C27.224 72.6043 28.177 72.8253 28.9421 73.2693C29.7061 73.7123 30.2741 74.2943 30.6431 75.0153C31.0141 75.7372 31.2001 76.5212 31.2001 77.3682V80.5701H20.9678ZM29.4461 77.9692C29.4461 76.9942 29.1951 76.1782 28.693 75.5213C28.192 74.8633 27.321 74.5343 26.085 74.5343C24.8469 74.5343 23.9779 74.8633 23.4759 75.5213C22.9738 76.1782 22.7218 76.9952 22.7218 77.9692V78.6702H29.4471L29.4461 77.9692ZM30.7331 70.6834C30.3431 71.1023 29.7931 71.3113 29.0821 71.3113C28.351 71.3113 27.767 71.0344 27.328 70.4784C26.889 69.9224 26.67 69.1724 26.67 68.2274V66.9414H26.349C25.9889 66.9414 25.7179 67.0634 25.5369 67.3064C25.3559 67.5494 25.2659 67.8574 25.2659 68.2274C25.2659 68.8604 25.5479 69.2864 26.115 69.4984L25.7629 71.0334C25.1639 70.9253 24.6311 70.5868 24.2789 70.0904C23.9049 69.5784 23.7169 68.9574 23.7169 68.2274C23.7169 67.2434 23.9779 66.4805 24.4989 65.9395C25.0199 65.3995 25.7879 65.1275 26.801 65.1275H31.2001V66.6195L30.2641 66.8094C30.9661 67.3824 31.3161 68.1394 31.3161 69.0744C31.3171 69.7274 31.1221 70.2644 30.7331 70.6834ZM29.3511 67.4374C29.0741 67.1054 28.706 66.9404 28.247 66.9404H28.101V68.1534C28.101 68.5534 28.179 68.8624 28.334 69.0824C28.49 69.3014 28.729 69.4104 29.0511 69.4104C29.149 69.4138 29.2465 69.3952 29.3364 69.3559C29.4262 69.3166 29.5061 69.2577 29.5701 69.1834C29.7021 69.0324 29.7671 68.8354 29.7671 68.5914C29.7729 68.169 29.6251 67.7589 29.3511 67.4374ZM30.7331 61.6376L23.8329 64.3115V62.4846L28.452 60.7736L23.8329 59.1666V57.3537L34.1822 61.1546V62.9085L30.7331 61.6376ZM36.4023 17.0056L31.6201 31.9743H28.354L25.7699 22.2925L23.1858 31.9743H19.9187L15.1356 17.0056H18.8487L21.5228 27.2804L24.0479 17.0056H27.492L30.0171 27.2804L32.6912 17.0056H36.4023ZM38.9004 27.1624C40.3265 27.1624 41.3965 28.2314 41.3965 29.6573C41.3965 31.0823 40.3265 32.1523 38.9004 32.1523C37.4744 32.1523 36.4063 31.0823 36.4063 29.6573C36.4053 28.2314 37.4744 27.1624 38.9004 27.1624Z" fill="black"/>
</svg>
